<svg width="168" height="150" viewBox="0 0 168 150" fill="none" xmlns="http://www.w3.org/2000/svg">
<g clip-path="url(#clip0_116_1657)">
<path d="M86.0384 0.326991L80.572 1.72939L13.2245 19.0072L7.7581 20.4096C5.10476 21.0935 2.83245 22.7965 1.43969 25.145C0.0469281 27.4936 -0.352541 30.2958 0.32892 32.9369L24.0325 124.379C24.72 127.019 26.4318 129.28 28.7925 130.665C31.1532 132.051 33.97 132.448 36.6249 131.77L36.639 131.767L114.891 111.691L114.905 111.688C117.559 111.004 119.831 109.301 121.224 106.952C122.616 104.604 123.016 101.801 122.334 99.1603L98.6308 7.71783C97.9433 5.0782 96.2315 2.81762 93.8708 1.43204C91.51 0.0464695 88.6933 -0.350944 86.0384 0.326991Z" fill="#F2F2F2"/>
<path d="M86.7814 3.19398L80.3068 4.85502L14.9755 21.6156L8.50097 23.2766C6.61146 23.7636 4.99329 24.9764 4.00147 26.6488C3.00964 28.3212 2.72517 30.3168 3.21045 32.1976L26.9141 123.64C27.4036 125.52 28.6227 127.13 30.3038 128.116C31.9849 129.103 33.9908 129.386 35.8814 128.903L35.8955 128.9L114.148 108.824L114.162 108.821C116.051 108.334 117.669 107.121 118.661 105.448C119.653 103.776 119.937 101.78 119.452 99.8996L95.7486 8.45717C95.2591 6.57744 94.04 4.96764 92.3589 3.98095C90.6778 2.99425 88.672 2.71123 86.7814 3.19398Z" fill="white"/>
<path d="M81.8926 32.8055L42.3068 42.9611C41.8646 43.0746 41.3953 43.0086 41.0021 42.7778C40.6088 42.547 40.3238 42.1702 40.2098 41.7304C40.0958 41.2905 40.1621 40.8236 40.3941 40.4324C40.6261 40.0412 41.0048 39.7577 41.447 39.6442L81.0328 29.4886C81.4748 29.3756 81.9437 29.4418 82.3367 29.6727C82.7296 29.9035 83.0143 30.2801 83.1283 30.7197C83.2422 31.1593 83.1761 31.6259 82.9444 32.017C82.7127 32.4081 82.3344 32.6917 81.8926 32.8055Z" fill="#F2F2F2"/>
<path d="M90.2199 36.6386L43.7575 48.5584C43.3153 48.6718 42.846 48.6059 42.4528 48.3751C42.0595 48.1442 41.7745 47.7675 41.6605 47.3276C41.5465 46.8878 41.6128 46.4209 41.8448 46.0297C42.0768 45.6384 42.4555 45.3549 42.8977 45.2415L89.3601 33.3217C89.8023 33.2082 90.2716 33.2742 90.6648 33.505C91.0581 33.7358 91.3431 34.1126 91.4571 34.5524C91.5711 34.9923 91.5048 35.4592 91.2728 35.8504C91.0408 36.2416 90.6621 36.5251 90.2199 36.6386Z" fill="#F2F2F2"/>
<path d="M88.395 57.8895L48.8092 68.0452C48.5903 68.1014 48.3624 68.1141 48.1385 68.0826C47.9147 68.0512 47.6992 67.9761 47.5045 67.8619C47.3098 67.7476 47.1396 67.5962 47.0037 67.4165C46.8677 67.2368 46.7687 67.0322 46.7123 66.8144C46.6558 66.5966 46.643 66.3699 46.6746 66.1472C46.7063 65.9245 46.7817 65.7102 46.8965 65.5164C47.0114 65.3227 47.1635 65.1534 47.3442 65.0182C47.5248 64.883 47.7305 64.7844 47.9494 64.7283L87.5352 54.5726C87.7541 54.5165 87.982 54.5037 88.2059 54.5352C88.4298 54.5667 88.6452 54.6417 88.8399 54.756C89.0347 54.8702 89.2048 55.0216 89.3408 55.2013C89.4767 55.381 89.5757 55.5856 89.6322 55.8034C89.6887 56.0212 89.7014 56.2479 89.6698 56.4706C89.6382 56.6933 89.5628 56.9077 89.4479 57.1014C89.333 57.2951 89.1809 57.4644 89.0003 57.5996C88.8196 57.7349 88.614 57.8334 88.395 57.8895Z" fill="#F2F2F2"/>
<path d="M96.7224 61.7226L50.2599 73.6424C50.041 73.6986 49.8131 73.7113 49.5892 73.6799C49.3654 73.6484 49.1499 73.5734 48.9552 73.4591C48.7605 73.3448 48.5903 73.1935 48.4544 73.0138C48.3184 72.8341 48.2194 72.6295 48.1629 72.4117C48.1065 72.1939 48.0937 71.9672 48.1253 71.7445C48.1569 71.5218 48.2323 71.3074 48.3472 71.1137C48.4621 70.92 48.6142 70.7507 48.7949 70.6155C48.9755 70.4802 49.1812 70.3817 49.4001 70.3255L95.8626 58.4057C96.3047 58.2923 96.774 58.3582 97.1673 58.589C97.5605 58.8198 97.8455 59.1966 97.9595 59.6365C98.0735 60.0763 98.0073 60.5432 97.7752 60.9344C97.5432 61.3257 97.1645 61.6092 96.7224 61.7226Z" fill="#F2F2F2"/>
<path d="M94.8973 82.9736L55.3115 93.1293C54.8695 93.2424 54.4004 93.1762 54.0074 92.9454C53.6144 92.7145 53.3296 92.3379 53.2157 91.8982C53.1017 91.4586 53.1679 90.9919 53.3997 90.6008C53.6314 90.2096 54.0098 89.9261 54.4517 89.8124L94.0375 79.6567C94.4796 79.5433 94.9489 79.6093 95.3422 79.8401C95.7355 80.0709 96.0205 80.4477 96.1345 80.8875C96.2485 81.3274 96.1822 81.7943 95.9502 82.1855C95.7182 82.5767 95.3394 82.8602 94.8973 82.9736Z" fill="#F2F2F2"/>
<path d="M103.225 86.8067L56.7624 98.7266C56.5434 98.7829 56.3153 98.7958 56.0913 98.7645C55.8673 98.7332 55.6517 98.6583 55.4568 98.544C55.262 98.4297 55.0916 98.2784 54.9556 98.0986C54.8195 97.9188 54.7204 97.7141 54.6639 97.4962C54.6074 97.2782 54.5947 97.0514 54.6263 96.8286C54.658 96.6057 54.7336 96.3913 54.8486 96.1975C54.9636 96.0038 55.1159 95.8344 55.2968 95.6993C55.4776 95.5641 55.6835 95.4657 55.9026 95.4097L102.365 83.4898C102.807 83.3764 103.276 83.4423 103.67 83.6731C104.063 83.904 104.348 84.2807 104.462 84.7206C104.576 85.1604 104.51 85.6273 104.278 86.0185C104.046 86.4098 103.667 86.6933 103.225 86.8067Z" fill="#F2F2F2"/>
<path d="M35.5487 53.3742L21.5397 56.9682C21.3277 57.0223 21.1028 56.9906 20.9143 56.88C20.7258 56.7693 20.5891 56.5888 20.5342 56.3781L17.3184 43.9725C17.264 43.7616 17.2959 43.5378 17.4071 43.3503C17.5183 43.1628 17.6998 43.0268 17.9117 42.9722L31.9207 39.3782C32.1327 39.324 32.3576 39.3558 32.5461 39.4664C32.7346 39.577 32.8713 39.7576 32.9262 39.9683L36.142 52.3739C36.1964 52.5848 36.1645 52.8086 36.0533 52.9961C35.9421 53.1836 35.7606 53.3196 35.5487 53.3742Z" fill="#E6E6E6"/>
<path d="M42.0512 78.4583L28.0421 82.0523C27.8301 82.1064 27.6052 82.0747 27.4167 81.9641C27.2282 81.8534 27.0915 81.6729 27.0366 81.4621L23.8209 69.0566C23.7665 68.8457 23.7984 68.6219 23.9096 68.4344C24.0208 68.2469 24.2022 68.1109 24.4141 68.0563L38.4231 64.4623C38.6351 64.4081 38.86 64.4399 39.0486 64.5505C39.2371 64.6612 39.3737 64.8417 39.4286 65.0524L42.6444 77.458C42.6988 77.6689 42.6669 77.8927 42.5557 78.0802C42.4445 78.2677 42.2631 78.4037 42.0512 78.4583Z" fill="#E6E6E6"/>
<path d="M48.5536 103.542L34.5446 107.136C34.3326 107.191 34.1077 107.159 33.9192 107.048C33.7307 106.938 33.594 106.757 33.5391 106.546L30.3233 94.1407C30.2689 93.9298 30.3008 93.706 30.412 93.5185C30.5232 93.331 30.7047 93.195 30.9165 93.1404L44.9256 89.5464C45.1376 89.4923 45.3625 89.524 45.551 89.6346C45.7395 89.7453 45.8762 89.9258 45.9311 90.1366L49.1468 102.542C49.2013 102.753 49.1694 102.977 49.0582 103.164C48.9469 103.352 48.7655 103.488 48.5536 103.542Z" fill="#E6E6E6"/>
<path d="M140.635 23.5065H59.7934C57.0524 23.5096 54.4246 24.5942 52.4865 26.5223C50.5484 28.4504 49.4582 31.0647 49.4551 33.7914V128.225C49.4582 130.952 50.5484 133.566 52.4865 135.495C54.4246 137.423 57.0524 138.507 59.7934 138.51H140.635C143.376 138.507 146.003 137.423 147.942 135.495C149.88 133.566 150.97 130.952 150.973 128.225V33.7914C150.97 31.0647 149.88 28.4504 147.942 26.5223C146.003 24.5942 143.376 23.5096 140.635 23.5065Z" fill="#E6E6E6"/>
<path d="M140.635 26.4673H59.7933C57.8414 26.4695 55.9701 27.2419 54.5899 28.6149C53.2097 29.988 52.4333 31.8496 52.4312 33.7914V128.226C52.4333 130.167 53.2097 132.029 54.5899 133.402C55.9701 134.775 57.8414 135.547 59.7933 135.55H140.635C142.587 135.547 144.458 134.775 145.838 133.402C147.218 132.029 147.995 130.167 147.997 128.226V33.7914C147.995 31.8497 147.218 29.988 145.838 28.615C144.458 27.2419 142.587 26.4695 140.635 26.4673Z" fill="white"/>
<path d="M149.128 150C159.551 150 168 141.594 168 131.225C168 120.856 159.551 112.451 149.128 112.451C138.705 112.451 130.256 120.856 130.256 131.225C130.256 141.594 138.705 150 149.128 150Z" fill="#008060"/>
<path d="M158.154 128.776H151.59V122.246C151.59 121.597 151.33 120.974 150.869 120.515C150.407 120.055 149.781 119.797 149.128 119.797C148.475 119.797 147.849 120.055 147.387 120.515C146.926 120.974 146.666 121.597 146.666 122.246V128.776H140.102C139.449 128.776 138.823 129.034 138.362 129.494C137.9 129.953 137.641 130.576 137.641 131.225C137.641 131.875 137.9 132.498 138.362 132.957C138.823 133.416 139.449 133.674 140.102 133.674H146.666V140.205C146.666 140.854 146.926 141.477 147.387 141.936C147.849 142.395 148.475 142.653 149.128 142.653C149.781 142.653 150.407 142.395 150.869 141.936C151.33 141.477 151.59 140.854 151.59 140.205V133.674H158.154C158.807 133.674 159.433 133.416 159.894 132.957C160.356 132.498 160.615 131.875 160.615 131.225C160.615 130.576 160.356 129.953 159.894 129.494C159.433 129.034 158.807 128.776 158.154 128.776Z" fill="white"/>
<ellipse cx="100.107" cy="66.0369" rx="26.6379" ry="26.5003" fill="#F8F8F8"/>
<path d="M113.211 57.4549C113.211 57.044 113.183 56.633 113.156 56.2495C113.046 55.2084 112.853 54.2221 112.522 53.2633C111.559 52.9893 110.54 52.8249 109.493 52.7701C109.3 52.7701 109.108 52.7427 108.915 52.7427C105.39 52.7427 102.195 54.14 99.8546 56.4139C98.9182 56.1947 97.9819 56.0851 96.9905 56.0851C94.3193 56.0851 91.8408 56.8796 89.7754 58.2494C88.9217 58.8248 88.123 59.4823 87.4346 60.222C87.6549 61.2357 87.9853 62.1945 88.426 63.0986C90.0232 66.3862 92.9699 68.8793 96.5499 69.9204C97.679 73.2079 100.075 75.8928 103.187 77.3722C104.068 77.8106 105.032 78.1393 106.023 78.3585C106.739 77.6736 107.4 76.8791 107.951 76.0298C109.245 74.0024 110.016 71.6189 110.016 69.0437C110.016 68.0848 109.906 67.1533 109.713 66.2766C111.889 63.9753 113.211 60.8521 113.211 57.4549ZM95.8614 65.7287C95.8614 66.1396 95.889 66.5506 95.9165 66.9341C93.3554 65.7835 91.3451 63.6739 90.3537 61.0165C92.1437 59.5645 94.457 58.6604 96.963 58.6604C97.2935 58.6604 97.5964 58.6878 97.9268 58.7152C96.6325 60.7425 95.8614 63.1534 95.8614 65.7287ZM98.6704 67.7286C98.5327 67.0711 98.4776 66.4136 98.4776 65.7287C98.4776 63.3178 99.3038 61.1261 100.681 59.3727C103.517 60.4412 105.748 62.6877 106.767 65.5095C104.977 66.9615 102.664 67.8656 100.157 67.8656C99.6618 67.8108 99.1661 67.7834 98.6704 67.7286ZM105.197 75.4271C102.746 74.4956 100.763 72.7148 99.5792 70.4135C99.7719 70.4135 99.9647 70.4409 100.157 70.4409C102.829 70.4409 105.307 69.6464 107.373 68.2766C107.4 68.5505 107.4 68.7971 107.4 69.0711C107.4 71.4546 106.602 73.6463 105.197 75.4271ZM102.691 57.4001C104.426 56.1125 106.574 55.3454 108.915 55.3454C109.438 55.3454 109.934 55.3728 110.402 55.455C110.54 56.1125 110.595 56.77 110.595 57.4549C110.595 59.6741 109.906 61.7288 108.695 63.4C107.428 60.7973 105.307 58.6604 102.691 57.4001Z" fill="#E0E0E0"/>
<path d="M96.9912 72.9612C96.9912 72.9612 96.881 71.8653 95.6969 70.742C94.5127 69.6188 93.4111 69.5366 93.4111 69.5366C85.7278 68.112 87.0221 79.6733 87.0221 79.6733C87.0221 79.6733 98.671 80.55 96.9912 72.9612ZM89.5006 77.098C89.5006 77.098 89.3079 71.6735 92.8879 72.0571C92.8879 72.0571 93.4111 72.0571 93.9344 72.5502C94.4576 73.0434 94.4576 73.5639 94.4576 73.5639C94.9533 77.098 89.5006 77.098 89.5006 77.098Z" fill="#E0E0E0"/>
<rect x="66.8096" y="103.436" width="66.3799" height="6.41135" rx="3.20568" fill="#F2F2F2"/>
<rect x="80.3433" y="115.191" width="39.3123" height="6.41135" rx="3.20568" fill="#F2F2F2"/>
</g>
<defs>
<clipPath id="clip0_116_1657">
<rect width="168" height="150" fill="white"/>
</clipPath>
</defs>
</svg>
